<svg  xmlns="http://www.w3.org/2000/svg" xmlns:xlink="http://www.w3.org/1999/xlink" width="883" height="300" viewBox="0 0 907 324"><path transform="translate(0 100)" d="M10.5,-64.7L10.5,-20.3L13.4,-20.3L13.4,-61.8L86.1,-61.8L86.1,-20.8L89,-20.8L89,-64.7L10.5,-64.7ZM12.2,-30.1L12.2,-27.2L88.1,-27.2L88.1,-30.1L12.2,-30.1ZM48.2,-83.1L48.2,6.8L51.2,6.8L51.2,-83.1L48.2,-83.1Z"></path><path transform="translate(100 100)" d="M75.8,-63.4C63,-28.5 40.6,-7.8 4.7,3.9C5.4,4.6 6.4,6 6.8,6.7C42.7,-5.8 65.4,-26.3 78.8,-62.3L75.8,-63.4ZM23.5,-63.3L20.8,-62.3C33.6,-28.6 58.3,-3.4 93.3,6.5C93.9,5.6 94.8,4.5 95.5,3.8C60.7,-5.6 35.9,-30.7 23.5,-63.3ZM5.6,-64.6L5.6,-61.7L94.8,-61.7L94.8,-64.6L5.6,-64.6ZM43.4,-82.4C46.9,-77.5 50.6,-70.8 52.2,-66.7L55.1,-67.8C53.4,-71.9 49.6,-78.5 46.2,-83.3L43.4,-82.4Z"></path><path transform="translate(200 100)" d="M42.7,-64.3C38.2,-40.8 30.2,-20.9 16.8,-8.3C17.6,-7.9 18.8,-6.8 19.3,-6.3C32.7,-19.6 40.9,-39.3 45.8,-63.8L42.7,-64.3ZM72.2,-64C67.9,-40 60.1,-20.1 46.2,-7.6C47,-7.2 48.1,-6.2 48.7,-5.7C62.4,-18.9 70.5,-38.5 75.1,-63.5L72.2,-64ZM20,-57.3C29.8,-44.5 41.1,-26.9 46.2,-15.7L48.8,-17.1C43.8,-28 32.6,-45.5 22.5,-58.5L20,-57.3ZM49.6,-57.2C59.9,-43.2 71.6,-24.2 76.9,-12.1L79.5,-13.3C74.4,-25.4 62.6,-44.2 52.2,-58.3L49.6,-57.2ZM10,-76.6L10,6.8L13,6.8L13,-73.6L89.3,-73.6L89.3,-76.6L10,-76.6ZM87.5,-76.6L87.5,1.6C87.5,3.3 86.8,3.8 85.1,3.9C83.4,4 77.6,4.1 70.6,3.9C71.1,4.8 71.6,6 71.9,6.7C80.5,6.8 85,6.7 87.2,6.3C89.5,5.7 90.5,4.4 90.5,1.5L90.5,-76.6L87.5,-76.6Z"></path><path transform="translate(300 100)" d="M23.2,-54.1L23.2,-51.2L74.5,-51.2L74.5,-54.1L23.2,-54.1ZM7.5,-28.7L7.5,-25.8L92.2,-25.8L92.2,-28.7L7.5,-28.7ZM48.6,-35.9L48.6,2.3C48.6,3.7 48.1,4.2 46.5,4.3C44.9,4.4 39.5,4.4 32.1,4.3C32.7,5.1 33.2,6.3 33.5,7C42.1,7 46.3,7 48.5,6.5C50.8,5.9 51.6,4.8 51.6,2.2L51.6,-35.9L48.6,-35.9ZM73.7,-54.1L73.7,-53.4C67.9,-47.3 57.4,-40 48.6,-35.9C49.2,-35.5 50.1,-34.6 50.6,-34C59.4,-38.4 70.4,-45.7 77.2,-52.8L75.1,-54.3L74.4,-54.1L73.7,-54.1ZM9.3,-71.6L9.3,-53.4L12.3,-53.4L12.3,-68.6L87.8,-68.6L87.8,-53.4L90.8,-53.4L90.8,-71.6L9.3,-71.6ZM44.3,-82.6C47.4,-78.7 50.4,-73.3 51.6,-69.7L54.4,-71C53.1,-74.5 50,-79.8 46.9,-83.7L44.3,-82.6Z"></path><path transform="translate(400 100)" d="M15.9,-78.7C21.4,-74 27.9,-67.2 31.1,-63L33.1,-65.4C30,-69.5 23.5,-76 18,-80.6L15.9,-78.7ZM20.3,3.6C21.6,1.9 23.6,0.5 41.1,-11.6C40.8,-12.1 40.2,-13.2 39.9,-13.9L21.9,-2L20.2,0.5L20.3,3.6ZM5.4,-51.1L5.4,-48.1L24.1,-48.1L24.1,-51.1L5.4,-51.1ZM37.7,-48.2L37.7,-45.3L95.1,-45.3L95.1,-48.2L37.7,-48.2ZM64.4,-82.9L64.4,7L67.3,7L67.3,-82.9L64.4,-82.9ZM20.3,3.6C20.3,2.1 25.5,-2 25.5,-2L25.5,-51.1L22.6,-51.1L22.6,-6.5C22.6,-2.4 19.6,0.1 18.2,1C18.9,1.6 19.9,2.8 20.3,3.6Z"></path><path transform="translate(500 100)" d="M67.3,-71.8L67.3,-17.1L70.3,-17.1L70.3,-71.8L67.3,-71.8ZM86.8,-82L86.8,1.5C86.8,3.3 86.1,3.8 84.3,3.9C82.7,4 76.9,4.1 69.7,3.9C70.2,4.8 70.8,6.1 71,6.8C79.8,6.8 84.1,6.8 86.4,6.3C88.6,5.7 89.8,4.6 89.8,1.4L89.8,-82L86.8,-82ZM4.6,-51.6L5,-48.8L60.3,-55.3L59.9,-58.1L4.6,-51.6ZM21.1,-82.9C22.1,-34.6 36.6,7 51,7C55.9,7 57.5,2.4 58.3,-10.6C57.5,-10.8 56.3,-11.4 55.6,-12C55,-0.3 53.8,4.1 51.1,4.1C39.8,4.1 24.6,-33.3 24.1,-82.9L21.1,-82.9ZM49.4,-47.6C40.6,-25.2 24.9,-7.9 4.9,2.6C5.7,3.2 6.8,4.4 7.2,5.1C27.1,-6.2 42.8,-23.4 52.3,-46.8L49.4,-47.6ZM32.2,-77.8C37.7,-73.6 44,-67.5 47.2,-63.6L49.3,-65.6C46.3,-69.5 39.8,-75.4 34.3,-79.5L32.2,-77.8Z"></path><path transform="translate(0 200)" d="M26.7,-0L30.6,-0L30.6,-69.3L54,-69.3L54,-72.6L3.3,-72.6L3.3,-69.3L26.7,-69.3L26.7,-0Z"></path><path transform="translate(57 200)" d="M10.5,-0L14.1,-0L14.1,-40.3C20.8,-47.2 25.6,-50.7 32.1,-50.7C41.1,-50.7 44.8,-45 44.8,-33.4L44.8,-0L48.4,-0L48.4,-33.9C48.4,-47.5 43.3,-54 32.5,-54C25.2,-54 19.7,-49.8 14.1,-44.1L14.1,-56L14.1,-79.4L10.5,-79.4L10.5,-0Z"></path><path transform="translate(114 200)" d="M30,1.3C37.8,1.3 42.3,-1.3 46.3,-3.7L44.7,-6.8C40.7,-3.9 36.2,-2 30.2,-2C17.8,-2 9.7,-12.2 9.7,-26.1L48.3,-26.1C48.5,-27.5 48.5,-28.6 48.5,-29.7C48.5,-45.3 40.8,-54 28.6,-54C16.9,-54 5.9,-43.4 5.9,-26.2C5.9,-9 16.7,1.3 30,1.3ZM9.7,-29.4C10.8,-42.7 19.2,-50.7 28.6,-50.7C38.5,-50.7 45,-43.7 45,-29.4L9.7,-29.4Z"></path><path transform="translate(167 200)" d=""></path><path transform="translate(189 200)" d="M11,-0L14.7,-0L14.7,-32L28.9,-32C45.2,-32 54.5,-38.8 54.5,-52.8C54.5,-67.3 45,-72.6 28.5,-72.6L11,-72.6L11,-0ZM14.7,-35.3L14.7,-69.3L27.2,-69.3C42.9,-69.3 50.5,-65.5 50.5,-52.8C50.5,-40.3 43.1,-35.3 27.6,-35.3L14.7,-35.3Z"></path><path transform="translate(249 200)" d="M10.5,-0L14.1,-0L14.1,-36.4C18.2,-46.8 24,-50.5 28.7,-50.5C30.8,-50.5 31.7,-50.3 33.4,-49.6L34.3,-52.9C32.5,-53.8 31,-54 29.2,-54C22.9,-54 17.8,-49.2 14.3,-42.8L14.1,-42.8L13.5,-52.7L10.5,-52.7L10.5,-0Z"></path><path transform="translate(282 200)" d="M29.3,1.3C41.9,1.3 52.7,-8.8 52.7,-26.2C52.7,-43.9 41.9,-54 29.3,-54C16.7,-54 5.9,-43.9 5.9,-26.2C5.9,-8.8 16.7,1.3 29.3,1.3ZM29.3,-2C18.1,-2 9.7,-11.8 9.7,-26.2C9.7,-40.7 18.1,-50.7 29.3,-50.7C40.5,-50.7 49,-40.7 49,-26.2C49,-11.8 40.5,-2 29.3,-2Z"></path><path transform="translate(341 200)" d="M3.1,25.6C10.5,25.6 14.1,21.1 14.1,11L14.1,-52.7L10.5,-52.7L10.5,10.6C10.5,17.4 9.4,22.5 3.3,22.5C1.1,22.5 -1.1,21.8 -2.4,21.4L-3.3,24.3C-1.8,25 0.9,25.6 3.1,25.6ZM12.2,-66C14.2,-66 15.8,-67.5 15.8,-70.1C15.8,-72.3 14.2,-73.9 12.2,-73.9C10.1,-73.9 8.6,-72.3 8.6,-70.1C8.6,-67.5 10.1,-66 12.2,-66Z"></path><path transform="translate(365 200)" d="M30,1.3C37.8,1.3 42.3,-1.3 46.3,-3.7L44.7,-6.8C40.7,-3.9 36.2,-2 30.2,-2C17.8,-2 9.7,-12.2 9.7,-26.1L48.3,-26.1C48.5,-27.5 48.5,-28.6 48.5,-29.7C48.5,-45.3 40.8,-54 28.6,-54C16.9,-54 5.9,-43.4 5.9,-26.2C5.9,-9 16.7,1.3 30,1.3ZM9.7,-29.4C10.8,-42.7 19.2,-50.7 28.6,-50.7C38.5,-50.7 45,-43.7 45,-29.4L9.7,-29.4Z"></path><path transform="translate(418 200)" d="M29.5,1.3C36.3,1.3 41.9,-1.8 46.3,-5.7L44.2,-8.3C40.5,-4.8 35.4,-2 29.6,-2C17.6,-2 9.7,-11.8 9.7,-26.2C9.7,-40.7 18.4,-50.7 29.6,-50.7C35,-50.7 39.2,-48.1 42.7,-44.8L45,-47.4C41.5,-50.7 36.8,-54 29.6,-54C16.9,-54 5.9,-43.9 5.9,-26.2C5.9,-8.8 16.1,1.3 29.5,1.3Z"></path><path transform="translate(466 200)" d="M24.1,1.3C25.9,1.3 29.2,0.4 32.3,-0.7L31.1,-3.7C29.2,-2.8 26.4,-2 24.4,-2C16.7,-2 15.2,-6.7 15.2,-13.5L15.2,-49.4L30.8,-49.4L30.8,-52.7L15.2,-52.7L15.2,-68.1L12.1,-68.1L11.7,-52.7L3.3,-52.2L3.3,-49.4L11.7,-49.4L11.7,-14C11.7,-4.8 14.3,1.3 24.1,1.3Z"></path><path transform="translate(499 200)" d=""></path><path transform="translate(521 200)" d="M11,-0L14.7,-0L14.7,-35.8L44.3,-35.8L44.3,-39L14.7,-39L14.7,-69.3L49.8,-69.3L49.8,-72.6L11,-72.6L11,-0Z"></path><path transform="translate(572 200)" d="M29.3,1.3C41.9,1.3 52.7,-8.8 52.7,-26.2C52.7,-43.9 41.9,-54 29.3,-54C16.7,-54 5.9,-43.9 5.9,-26.2C5.9,-8.8 16.7,1.3 29.3,1.3ZM29.3,-2C18.1,-2 9.7,-11.8 9.7,-26.2C9.7,-40.7 18.1,-50.7 29.3,-50.7C40.5,-50.7 49,-40.7 49,-26.2C49,-11.8 40.5,-2 29.3,-2Z"></path><path transform="translate(631 200)" d="M10.5,-0L14.1,-0L14.1,-36.4C18.2,-46.8 24,-50.5 28.7,-50.5C30.8,-50.5 31.7,-50.3 33.4,-49.6L34.3,-52.9C32.5,-53.8 31,-54 29.2,-54C22.9,-54 17.8,-49.2 14.3,-42.8L14.1,-42.8L13.5,-52.7L10.5,-52.7L10.5,-0Z"></path><path transform="translate(665 200)" d=""></path><path transform="translate(687 200)" d="M20.1,-0L24,-0L37.7,-51.8C39,-57.6 40.6,-62.4 41.9,-68.1L42.3,-68.1C43.7,-62.4 45,-57.6 46.3,-51.8L60.2,-0L64.1,-0L80.7,-72.6L77,-72.6L67.3,-28.8C65.7,-20.9 64.1,-13 62.4,-5L61.9,-5C59.9,-13 58,-20.9 56,-28.8L44.2,-72.6L40,-72.6L28.3,-28.8C26.3,-20.9 24.3,-13 22.5,-5L22.1,-5C20.3,-13 18.6,-20.9 16.8,-28.8L7.2,-72.6L3.3,-72.6L20.1,-0Z"></path><path transform="translate(771 200)" d="M30,1.3C37.8,1.3 42.3,-1.3 46.3,-3.7L44.7,-6.8C40.7,-3.9 36.2,-2 30.2,-2C17.8,-2 9.7,-12.2 9.7,-26.1L48.3,-26.1C48.5,-27.5 48.5,-28.6 48.5,-29.7C48.5,-45.3 40.8,-54 28.6,-54C16.9,-54 5.9,-43.4 5.9,-26.2C5.9,-9 16.7,1.3 30,1.3ZM9.7,-29.4C10.8,-42.7 19.2,-50.7 28.6,-50.7C38.5,-50.7 45,-43.7 45,-29.4L9.7,-29.4Z"></path><path transform="translate(824 200)" d="M30.2,1.3C42.8,1.3 53.6,-9.2 53.6,-27.1C53.6,-43.4 46.7,-54 32.4,-54C25.8,-54 19.3,-50 13.8,-45.4L14.1,-56L14.1,-79.4L10.5,-79.4L10.5,-0L13.5,-0L14,-5.3L14.3,-5.3C19.2,-1.3 25.2,1.3 30.2,1.3ZM30.5,-2C26.3,-2 20.1,-3.9 14.1,-9.1L14.1,-41.6C20.6,-47.4 26.7,-50.7 32.1,-50.7C45,-50.7 49.8,-40.5 49.8,-27.1C49.8,-12.4 41.7,-2 30.5,-2Z"></path></svg>